<svg width="286" height="48" viewBox="0 0 286 48" fill="none" xmlns="http://www.w3.org/2000/svg">
<path d="M13.288 33.96C13.288 36.616 12.808 38.808 11.848 40.536C10.92 42.264 9.672 43.608 8.104 44.568C6.568 45.56 4.728 46.408 2.584 47.112L0.472 41.544C1.88 41 2.936 40.376 3.64 39.672C4.344 38.968 4.808 38.152 5.032 37.224C5.288 36.296 5.416 35.112 5.416 33.672V5.736H13.288V33.96ZM40.7144 39H34.1384L33.8024 35.784C31.9464 38.472 29.3704 39.816 26.0744 39.816C23.7384 39.816 21.9624 39.112 20.7464 37.704C19.5624 36.296 18.9704 34.328 18.9704 31.8V13.512H26.5544V30.84C26.5544 32.088 26.7464 32.968 27.1304 33.48C27.5464 33.96 28.1704 34.2 29.0024 34.2C30.6024 34.2 31.9784 33.208 33.1304 31.224V13.512H40.7144V39ZM66.9351 31.608C66.9351 32.568 67.0631 33.272 67.3191 33.72C67.6071 34.168 68.0551 34.504 68.6631 34.728L67.0791 39.672C65.5111 39.544 64.2311 39.208 63.2391 38.664C62.2471 38.088 61.4791 37.192 60.9351 35.976C59.2711 38.536 56.7111 39.816 53.2551 39.816C50.7271 39.816 48.7111 39.08 47.2071 37.608C45.7031 36.136 44.9511 34.216 44.9511 31.848C44.9511 29.064 45.9751 26.936 48.0231 25.464C50.0711 23.992 53.0311 23.256 56.9031 23.256H59.4951V22.152C59.4951 20.648 59.1751 19.624 58.5351 19.08C57.8951 18.504 56.7751 18.216 55.1751 18.216C54.3431 18.216 53.3351 18.344 52.1511 18.6C50.9671 18.824 49.7511 19.144 48.5031 19.56L46.7751 14.568C48.3751 13.96 50.0071 13.496 51.6711 13.176C53.3671 12.856 54.9351 12.696 56.3751 12.696C60.0231 12.696 62.6951 13.448 64.3911 14.952C66.0871 16.456 66.9351 18.712 66.9351 21.72V31.608ZM55.4631 34.392C57.1911 34.392 58.5351 33.576 59.4951 31.944V27.432H57.6231C55.8951 27.432 54.5991 27.736 53.7351 28.344C52.9031 28.952 52.4871 29.896 52.4871 31.176C52.4871 32.2 52.7431 33 53.2551 33.576C53.7991 34.12 54.5351 34.392 55.4631 34.392ZM87.904 12.696C90.112 12.696 91.84 13.368 93.088 14.712C94.336 16.056 94.96 17.944 94.96 20.376V39H87.376V21.672C87.376 20.392 87.168 19.512 86.752 19.032C86.368 18.52 85.776 18.264 84.976 18.264C83.44 18.264 81.968 19.368 80.56 21.576V39H72.976V13.512H79.6L80.128 16.536C81.216 15.256 82.384 14.296 83.632 13.656C84.912 13.016 86.336 12.696 87.904 12.696ZM129.734 39L128.006 31.848H118.31L116.63 39H108.47L118.502 5.736H128.054L138.086 39H129.734ZM119.654 26.136H126.662L123.158 11.448L119.654 26.136ZM147.15 39.816C144.942 39.816 143.214 39.192 141.966 37.944C140.75 36.664 140.142 34.856 140.142 32.52V3.384L147.726 2.568V32.232C147.726 33.288 148.158 33.816 149.022 33.816C149.47 33.816 149.886 33.736 150.27 33.576L151.758 38.952C150.382 39.528 148.846 39.816 147.15 39.816ZM182.808 12.696C184.824 12.696 186.44 13.384 187.656 14.76C188.872 16.104 189.48 17.976 189.48 20.376V39H181.896V21.672C181.896 19.4 181.176 18.264 179.736 18.264C178.936 18.264 178.232 18.536 177.624 19.08C177.016 19.624 176.424 20.456 175.848 21.576V39H168.264V21.672C168.264 19.4 167.544 18.264 166.104 18.264C165.336 18.264 164.632 18.552 163.992 19.128C163.384 19.672 162.792 20.488 162.216 21.576V39H154.632V13.512H161.256L161.784 16.488C162.776 15.208 163.864 14.264 165.048 13.656C166.264 13.016 167.64 12.696 169.176 12.696C170.616 12.696 171.848 13.048 172.872 13.752C173.928 14.456 174.696 15.448 175.176 16.728C176.2 15.352 177.32 14.344 178.536 13.704C179.784 13.032 181.208 12.696 182.808 12.696ZM217.403 25.752C217.403 26.808 217.355 27.72 217.259 28.488H201.467C201.723 30.632 202.331 32.136 203.291 33C204.251 33.864 205.579 34.296 207.275 34.296C208.299 34.296 209.291 34.12 210.251 33.768C211.211 33.384 212.251 32.808 213.371 32.04L216.491 36.264C213.515 38.632 210.203 39.816 206.555 39.816C202.427 39.816 199.259 38.6 197.051 36.168C194.843 33.736 193.739 30.472 193.739 26.376C193.739 23.784 194.203 21.464 195.131 19.416C196.059 17.336 197.419 15.704 199.211 14.52C201.003 13.304 203.147 12.696 205.643 12.696C209.323 12.696 212.203 13.848 214.283 16.152C216.363 18.456 217.403 21.656 217.403 25.752ZM209.963 23.592C209.899 19.688 208.523 17.736 205.835 17.736C204.523 17.736 203.499 18.216 202.763 19.176C202.059 20.136 201.627 21.72 201.467 23.928H209.963V23.592ZM229.248 13.512V39H221.664V13.512H229.248ZM225.408 0.0719976C226.72 0.0719976 227.792 0.487998 228.624 1.32C229.488 2.12 229.92 3.144 229.92 4.392C229.92 5.64 229.488 6.68 228.624 7.512C227.792 8.312 226.72 8.712 225.408 8.712C224.096 8.712 223.024 8.312 222.192 7.512C221.36 6.68 220.944 5.64 220.944 4.392C220.944 3.144 221.36 2.12 222.192 1.32C223.024 0.487998 224.096 0.0719976 225.408 0.0719976ZM258.058 3.384V39H251.338L250.954 36.024C249.162 38.552 246.746 39.816 243.706 39.816C240.538 39.816 238.122 38.6 236.458 36.168C234.826 33.736 234.01 30.408 234.01 26.184C234.01 23.592 234.442 21.272 235.306 19.224C236.17 17.176 237.386 15.576 238.954 14.424C240.554 13.272 242.378 12.696 244.426 12.696C246.858 12.696 248.874 13.496 250.474 15.096V2.568L258.058 3.384ZM246.058 34.248C247.818 34.248 249.29 33.288 250.474 31.368V20.376C249.866 19.64 249.242 19.096 248.602 18.744C247.994 18.392 247.29 18.216 246.49 18.216C245.082 18.216 243.962 18.872 243.13 20.184C242.298 21.496 241.882 23.512 241.882 26.232C241.882 29.208 242.234 31.288 242.938 32.472C243.674 33.656 244.714 34.248 246.058 34.248ZM284.248 31.608C284.248 32.568 284.376 33.272 284.632 33.72C284.92 34.168 285.368 34.504 285.976 34.728L284.392 39.672C282.824 39.544 281.544 39.208 280.552 38.664C279.56 38.088 278.792 37.192 278.248 35.976C276.584 38.536 274.024 39.816 270.568 39.816C268.04 39.816 266.024 39.08 264.52 37.608C263.016 36.136 262.264 34.216 262.264 31.848C262.264 29.064 263.288 26.936 265.336 25.464C267.384 23.992 270.344 23.256 274.216 23.256H276.808V22.152C276.808 20.648 276.488 19.624 275.848 19.08C275.208 18.504 274.088 18.216 272.488 18.216C271.656 18.216 270.648 18.344 269.464 18.6C268.28 18.824 267.064 19.144 265.816 19.56L264.088 14.568C265.688 13.96 267.32 13.496 268.984 13.176C270.68 12.856 272.248 12.696 273.688 12.696C277.336 12.696 280.008 13.448 281.704 14.952C283.4 16.456 284.248 18.712 284.248 21.72V31.608ZM272.776 34.392C274.504 34.392 275.848 33.576 276.808 31.944V27.432H274.936C273.208 27.432 271.912 27.736 271.048 28.344C270.216 28.952 269.8 29.896 269.8 31.176C269.8 32.2 270.056 33 270.568 33.576C271.112 34.12 271.848 34.392 272.776 34.392Z" fill="#141414"/>
</svg>
